<svg width="287" height="167" viewBox="0 0 287 167" fill="none" xmlns="http://www.w3.org/2000/svg">
<rect width="287" height="167" fill="white"/>
<rect width="1992" height="1598" transform="translate(-92 -157)" fill="#E4E0E0"/>
<rect width="360" height="640" transform="translate(-37 -101)" fill="white"/>
<g clip-path="url(#clip0_0_1)">
<path d="M219.734 165.112C216.06 162.09 213.828 157.316 214.413 152.669C214.998 148.022 218.624 143.75 223.326 142.763C228.028 141.776 233.389 144.508 234.817 148.979C235.603 140.359 236.509 131.378 241.217 124.038C245.481 117.392 252.865 112.636 260.868 111.785C268.871 110.934 277.297 114.148 282.289 120.295C287.28 126.443 288.502 135.381 285.006 142.439C282.431 147.639 277.687 151.508 272.716 154.656C256.653 164.743 237.388 168.845 218.465 166.208L219.734 165.112Z" fill="#F2F2F2"/>
<path d="M274.375 114.326C267.771 119.561 261.713 125.415 256.288 131.805C247.798 141.772 240.928 152.945 235.917 164.938C235.55 165.813 237.01 166.193 237.373 165.328C245.572 145.838 258.66 128.66 275.442 115.364C276.196 114.767 275.122 113.733 274.375 114.326Z" fill="white"/>
<path d="M92.3899 164.291C97.4367 160.14 100.502 153.583 99.6982 147.201C98.8943 140.818 93.9151 134.95 87.4563 133.595C80.9976 132.239 73.635 135.991 71.6732 142.132C70.5936 130.293 69.3495 117.958 62.8823 107.876C57.0265 98.7471 46.884 92.215 35.8919 91.0464C24.8997 89.8778 13.3264 94.2914 6.47105 102.736C-0.384348 111.18 -2.06286 123.456 2.73848 133.15C6.27546 140.292 12.7918 145.606 19.6193 149.93C41.4015 163.725 68.4222 169.478 94.1329 165.796" fill="#F2F2F2"/>
<path d="M17.341 94.536C26.4109 101.726 34.7315 109.768 42.1826 118.544C49.6349 127.312 56.1958 136.763 61.7732 146.763C64.8907 152.373 67.6912 158.145 70.1623 164.052C70.6661 165.253 68.6613 165.776 68.1631 164.588C63.7862 154.174 58.3712 144.202 51.9957 134.816C45.6512 125.464 38.3896 116.733 30.3128 108.746C25.7446 104.231 20.9247 99.9631 15.875 95.9628C14.8399 95.1425 16.3145 93.7224 17.341 94.536L17.341 94.536Z" fill="white"/>
<path d="M206.013 166.634H85.6052V46.3944C85.6052 20.8124 106.989 0 133.273 0H158.345C184.629 0 206.013 20.8124 206.013 46.3944V166.634Z" fill="#F2F2F2"/>
<path d="M180.942 166.634H85.6051V46.3943C85.5788 36.5919 88.7681 27.0372 94.7086 19.1214C94.9275 18.8309 95.146 18.5442 95.3712 18.2606C98.2446 14.5927 101.664 11.3625 105.517 8.6765C105.734 8.52238 105.953 8.37095 106.174 8.21951C109.398 6.04826 112.885 4.2733 116.557 2.93505C116.775 2.85462 116.997 2.77404 117.219 2.69675C120.539 1.54349 123.981 0.753522 127.481 0.341415C127.698 0.312567 127.92 0.289994 128.143 0.267419C131.554 -0.0875121 134.994 -0.0875121 138.404 0.267419C138.627 0.289994 138.849 0.312565 139.069 0.341724C142.568 0.753858 146.009 1.54373 149.328 2.69676C149.551 2.77405 149.772 2.85463 149.991 2.93521C153.617 4.25659 157.063 6.00506 160.253 8.1416C160.474 8.28975 160.696 8.44119 160.915 8.59263C163.074 10.0929 165.102 11.7643 166.979 13.5897C168.484 15.0539 169.886 16.6147 171.177 18.2615C171.401 18.5442 171.62 18.8309 171.838 19.121C177.779 27.0368 180.968 36.5917 180.942 46.3943V166.634Z" fill="#CCCCCC"/>
<path d="M173.19 112.855C176.105 112.855 178.468 110.556 178.468 107.718C178.468 104.881 176.105 102.581 173.19 102.581C170.275 102.581 167.911 104.881 167.911 107.718C167.911 110.556 170.275 112.855 173.19 112.855Z" fill="#0C5DAD"/>
<path d="M196.149 163.033H192.105L190.181 147.85L196.15 147.851L196.149 163.033Z" fill="#FFB8B8"/>
<path d="M189.216 161.908H197.016V166.688H184.305C184.305 166.06 184.432 165.439 184.679 164.859C184.926 164.279 185.287 163.752 185.743 163.308C186.199 162.864 186.741 162.512 187.337 162.272C187.933 162.032 188.571 161.908 189.216 161.908V161.908Z" fill="#2F2E41"/>
<path d="M216.272 163.033H212.228L210.304 147.85L216.273 147.851L216.272 163.033Z" fill="#FFB8B8"/>
<path d="M209.339 161.908H217.139V166.688H204.428C204.428 166.06 204.555 165.439 204.802 164.859C205.049 164.279 205.41 163.752 205.866 163.308C206.322 162.864 206.864 162.512 207.46 162.272C208.055 162.032 208.694 161.908 209.339 161.908V161.908Z" fill="#2F2E41"/>
<path d="M175.861 108.736C175.57 108.319 175.377 107.845 175.294 107.347C175.212 106.849 175.243 106.34 175.385 105.855C175.527 105.37 175.776 104.921 176.115 104.54C176.455 104.159 176.876 103.855 177.349 103.649L191.097 66.7693L197.862 70.3625L182.165 105.606C182.467 106.403 182.458 107.279 182.14 108.07C181.823 108.861 181.218 109.51 180.441 109.896C179.664 110.282 178.769 110.377 177.924 110.163C177.08 109.949 176.346 109.442 175.861 108.736V108.736Z" fill="#FFB8B8"/>
<path d="M214.206 115.666C213.757 115.415 213.369 115.072 213.071 114.659C212.773 114.247 212.571 113.776 212.48 113.28C212.389 112.783 212.411 112.273 212.545 111.786C212.678 111.299 212.919 110.846 213.252 110.459L208.993 71.4465L216.692 71.7889L218.462 110.163C219.092 110.75 219.479 111.542 219.55 112.388C219.621 113.234 219.37 114.076 218.845 114.754C218.321 115.432 217.559 115.9 216.704 116.068C215.849 116.236 214.96 116.093 214.206 115.666V115.666Z" fill="#FFB8B8"/>
<path d="M201.925 59.9382C206.399 59.9382 210.027 56.4076 210.027 52.0524C210.027 47.6972 206.399 44.1666 201.925 44.1666C197.45 44.1666 193.822 47.6972 193.822 52.0524C193.822 56.4076 197.45 59.9382 201.925 59.9382Z" fill="#FFB8B8"/>
<path d="M214.155 106.793H189.728L189.757 106.608C189.801 106.332 194.111 78.8555 190.932 69.8665C190.613 68.9832 190.641 68.0162 191.011 67.1518C191.38 66.2873 192.066 65.5865 192.934 65.1842H192.934C197.477 63.102 206.198 60.538 213.559 66.7604C214.642 67.6911 215.488 68.8543 216.029 70.1581C216.571 71.4618 216.793 72.8703 216.679 74.2721L214.155 106.793Z" fill="#0C5DAD"/>
<path d="M194.419 82.916L183.422 80.7446L188.577 68.8555C188.885 67.7039 189.65 66.7185 190.704 66.1153C191.758 65.5121 193.015 65.3405 194.199 65.6379C195.383 65.9354 196.397 66.6777 197.02 67.7021C197.642 68.7264 197.821 69.9492 197.519 71.1022L194.419 82.916Z" fill="#0C5DAD"/>
<path d="M208.504 86.9479L207.843 72.1976C207.342 69.4248 208.972 66.8036 211.481 66.3751C213.99 65.9482 216.439 67.8713 216.943 70.6645L219.428 84.4473L208.504 86.9479Z" fill="#0C5DAD"/>
<path d="M213.342 105.027C217.272 119.596 217.701 138.12 216.641 158.325L211.363 157.683L201.796 119.154L196.518 158.325L190.58 158.004C188.806 136.804 187.079 118.604 189.92 106.633L213.342 105.027Z" fill="#2F2E41"/>
<path d="M207.263 58.1467C205.752 59.7138 202.945 58.8726 202.748 56.7317C202.732 56.5655 202.733 56.3982 202.751 56.2322C202.853 55.2839 203.416 54.423 203.281 53.4217C203.25 53.1725 203.155 52.9351 203.004 52.7318C201.799 51.162 198.972 53.4339 197.835 52.0128C197.138 51.1415 197.957 49.7695 197.422 48.7956C196.716 47.5101 194.625 48.1442 193.314 47.4403C191.855 46.657 191.942 44.4784 192.903 43.1532C194.074 41.537 196.127 40.6747 198.155 40.5504C200.184 40.4261 202.198 40.9597 204.091 41.6778C206.242 42.4937 208.375 43.6214 209.699 45.4624C211.309 47.7013 211.464 50.7112 210.659 53.3291C210.169 54.9216 208.498 56.8671 207.263 58.1467Z" fill="#2F2E41"/>
<path d="M277.097 166.841H33.5452C33.4412 166.841 33.3416 166.8 33.2682 166.729C33.1948 166.657 33.1536 166.56 33.1536 166.459C33.1536 166.358 33.1948 166.26 33.2682 166.189C33.3416 166.117 33.4412 166.077 33.5452 166.076H277.097C277.201 166.077 277.301 166.117 277.374 166.189C277.448 166.26 277.489 166.358 277.489 166.459C277.489 166.56 277.448 166.657 277.374 166.729C277.301 166.8 277.201 166.841 277.097 166.841V166.841Z" fill="#3F3D56"/>
<path d="M154.716 131.799H111.831C111.266 131.801 110.723 131.586 110.321 131.2C109.919 130.814 109.691 130.288 109.687 129.739V36.5746C109.691 36.0249 109.919 35.4993 110.321 35.1132C110.723 34.727 111.266 34.5118 111.831 34.5148H154.716C155.281 34.5118 155.824 34.727 156.226 35.1132C156.628 35.4993 156.856 36.0249 156.86 36.5746V129.739C156.856 130.288 156.628 130.814 156.226 131.2C155.824 131.586 155.281 131.801 154.716 131.799V131.799Z" fill="white"/>
<path d="M156.86 64.6598H109.687V65.3019H156.86V64.6598Z" fill="#CCCCCC"/>
<path d="M157.025 101.297H109.852V101.939H157.025V101.297Z" fill="#CCCCCC"/>
<path d="M125.191 34.5149H124.532V132.12H125.191V34.5149Z" fill="#CCCCCC"/>
<path d="M141.686 34.5149H141.026V132.12H141.686V34.5149Z" fill="#CCCCCC"/>
</g>
<defs>
<clipPath id="clip0_0_1">
<rect width="287" height="167" fill="white"/>
</clipPath>
</defs>
</svg>
