<svg width="185" height="148" viewBox="0 0 185 148" fill="none" xmlns="http://www.w3.org/2000/svg">
<g clip-path="url(#clip0_212_458)">
<path d="M148.017 145.849L145.027 145.849L143.604 134.287L148.018 134.287L148.017 145.849Z" fill="#FFB6B6"/>
<path d="M137.772 145.781C137.679 145.939 137.63 146.446 137.63 146.629C137.63 147.191 138.084 147.646 138.644 147.646H147.905C148.288 147.646 148.598 147.336 148.598 146.952V146.566C148.598 146.566 149.056 145.404 148.113 143.972C148.113 143.972 146.94 145.093 145.189 143.337L144.672 142.399L140.933 145.141L138.86 145.396C138.407 145.452 138.005 145.388 137.772 145.781Z" fill="#2F2E41"/>
<path d="M134.421 145.849L131.431 145.849L130.008 134.287L134.422 134.287L134.421 145.849Z" fill="#FFB6B6"/>
<path d="M124.176 145.781C124.083 145.939 124.034 146.446 124.034 146.629C124.034 147.191 124.488 147.646 125.048 147.646H134.309C134.692 147.646 135.002 147.336 135.002 146.952V146.566C135.002 146.566 135.46 145.404 134.517 143.972C134.517 143.972 133.344 145.093 131.593 143.337L131.076 142.399L127.337 145.141L125.264 145.396C124.811 145.452 124.409 145.388 124.176 145.781Z" fill="#2F2E41"/>
<path d="M152.816 73.6617L132.006 74.218L129.884 79.2246L127.289 111.768L129.509 140.417H135.989V113.377L140.885 96.7478L142.827 139.582L149.517 140.417L152.261 110.933L154.758 82.8405L152.816 73.6617Z" fill="#2F2E41"/>
<path d="M145.423 36.3901L138.208 36.6682L137.376 40.006C137.376 40.006 128.497 42.5093 129.052 45.847C129.607 49.1848 132.382 63.9265 132.382 63.9265C132.382 63.9265 129.329 73.3835 131.272 74.4961C133.214 75.6087 153.229 74.4961 153.229 74.4961C153.229 74.4961 154.857 70.3239 154.024 69.7676C153.192 69.2113 156.521 42.5093 155.967 41.953C155.412 41.3967 146.255 38.6152 146.255 38.6152L145.423 36.3901Z" fill="#0C5DAD"/>
<path d="M159.574 64.2047L160.129 68.0988L154.024 82.0061L150.972 80.3372L154.302 67.2643L154.857 62.2577L159.574 64.2047Z" fill="#FFB6B6"/>
<path d="M153.747 42.2312C153.747 42.2312 156.799 40.8404 159.019 45.8471C161.238 50.8537 160.684 61.7014 160.684 61.7014C160.684 61.7014 161.516 62.5358 160.961 63.0921C160.406 63.6484 159.351 62.3394 160.406 64.1083C160.961 65.0391 162.626 64.761 160.961 65.0391C159.296 65.3173 159.88 64.5399 160.406 65.5954C160.684 66.1517 161.793 66.1517 160.684 66.4299C159.574 66.708 153.989 66.2306 153.989 66.2306C153.989 66.2306 152.082 65.3173 153.192 64.761C154.302 64.2047 154.857 64.0952 154.302 63.8718C153.747 63.6484 152.359 63.6484 153.192 62.814C154.024 61.9795 154.579 61.9795 154.024 61.9795C153.469 61.9795 152.845 60.6392 152.845 60.6392L153.747 42.2312Z" fill="#0C5DAD"/>
<path d="M153.677 84.3401C154.353 82.3113 153.927 80.3405 152.725 79.9381C151.523 79.5357 150.001 80.8541 149.325 82.8828C148.649 84.9115 149.075 86.8824 150.277 87.2848C151.478 87.6872 153 86.3688 153.677 84.3401Z" fill="#FFB6B6"/>
<path d="M120.92 62.8872L118.713 66.1394L104.855 72.2931L103.721 68.9984L114.968 61.5873L118.744 58.2625L120.92 62.8872Z" fill="#FFB6B6"/>
<path d="M131.384 42.7146C131.384 42.7146 134.574 43.7484 132.849 48.9473C131.124 54.1461 123.423 61.787 123.423 61.787C123.423 61.787 123.477 62.9659 122.693 63.0021C121.909 63.0384 122.01 61.3588 121.6 63.3782C121.385 64.4408 122.802 65.3598 121.385 64.4408C119.968 63.5219 120.921 63.3416 120.601 64.4771C120.432 65.0756 121.252 65.8252 120.245 65.2811C119.238 64.737 115.432 60.6123 115.432 60.6123C115.432 60.6123 114.637 58.6493 115.831 58.9879C117.025 59.3264 117.508 59.6203 117.249 59.0805C116.989 58.5406 115.963 57.6035 117.139 57.5491C118.315 57.4948 118.725 57.8696 118.315 57.4948C117.905 57.12 118.345 55.7077 118.345 55.7077L131.384 42.7146Z" fill="#0C5DAD"/>
<path d="M103.029 73.7829C104.892 72.7404 105.902 70.9964 105.285 69.8874C104.667 68.7785 102.656 68.7245 100.793 69.767C98.9299 70.8095 97.92 72.5535 98.5375 73.6625C99.1549 74.7714 101.166 74.8254 103.029 73.7829Z" fill="#FFB6B6"/>
<path d="M142.13 35.0305C145.81 35.0305 148.794 32.0398 148.794 28.3506C148.794 24.6615 145.81 21.6708 142.13 21.6708C138.45 21.6708 135.467 24.6615 135.467 28.3506C135.467 32.0398 138.45 35.0305 142.13 35.0305Z" fill="#FFB6B6"/>
<path d="M136.808 22.9779C137.147 22.0139 138.087 21.4291 139.107 21.4518C139.15 21.4528 139.193 21.4524 139.236 21.4506C139.749 21.4296 140.242 21.2538 140.745 21.1507C141.684 20.9585 142.673 21.0228 143.578 21.335C143.86 21.432 144.142 21.554 144.439 21.554C144.737 21.5541 145.061 21.3904 145.134 21.1011C145.151 21.3631 145.168 21.625 145.185 21.887C145.282 21.675 145.379 21.4629 145.476 21.2509L145.67 22.0965L146.292 21.3898C146.236 21.7013 146.417 22.0152 146.662 22.2144C146.908 22.4135 147.211 22.5237 147.501 22.6478C148.754 23.1833 149.931 24.1315 150.292 25.4484C150.52 26.2804 150.401 27.1634 150.28 28.0177C150.173 28.773 150.057 29.5544 149.648 30.1973C149.385 30.6094 149.007 30.9562 148.847 31.4182C148.698 31.8489 148.754 32.3419 148.542 32.7451C148.329 33.1502 147.89 33.3794 147.46 33.5332C147.03 33.6872 146.572 33.7961 146.202 34.0639C145.832 34.3317 145.402 35.1033 144.595 35.0618L144.334 34.5712C144.066 34.3524 145.058 34.5259 145.068 34.1796C145.079 33.8333 143.875 33.6193 144.046 33.318C144.307 32.8559 144.661 32.4537 144.956 32.0121C145.301 31.4957 145.572 30.8923 145.453 30.262C145.407 30.0168 145.292 29.7852 145.118 29.6071C144.615 29.0936 144.055 29.3193 143.51 29.3927C143.134 29.4434 142.686 29.3849 142.491 29.0593C142.263 28.6783 142.517 28.1937 142.486 27.7505C142.453 27.2809 142.098 26.8959 141.712 26.6281C141.326 26.3604 140.887 26.1653 140.54 25.8487C140.192 25.532 140.247 25.6963 140.399 25.2507C137.815 27.193 138.197 23.8393 136.462 24.2585C136.545 23.8237 136.661 23.3953 136.808 22.9779L136.808 22.9779Z" fill="#2F2E41"/>
<path d="M105.118 142.415C104.439 142.77 103.76 143.251 103.245 144.103C103.148 144.263 103.062 144.438 102.981 144.619C103.209 142.991 103.665 141.459 104.321 140.183C104.563 139.712 104.156 139.023 103.912 139.496V139.496C102.872 140.038 102.434 141.304 102.267 142.804C102.06 142.267 101.806 141.782 101.509 141.379C101.388 141.214 101.22 141.18 101.101 141.379C101 141.549 100.979 141.9 101.101 142.066C100.654 144.422 101.809 145.152 102.208 146.325C102.217 146.585 102.226 146.842 102.235 147.093C102.244 147.342 102.338 147.49 102.448 147.541C102.501 147.679 102.597 147.775 102.694 147.775C102.858 147.775 102.974 147.552 102.983 147.289C103.015 146.325 103.113 144.65 103.685 144.739C104.902 144.928 104.958 143.942 105.272 143.351C105.519 142.887 105.474 142.228 105.118 142.415H105.118Z" fill="#E6E6E6"/>
<path d="M166.314 142.415C166.992 142.77 167.672 143.251 168.186 144.103C168.283 144.263 168.37 144.438 168.451 144.619C168.223 142.991 167.767 141.459 167.111 140.183C166.869 139.712 167.276 139.023 167.519 139.496V139.496C168.56 140.038 168.998 141.304 169.165 142.804C169.372 142.267 169.626 141.782 169.922 141.379C170.044 141.214 170.212 141.18 170.331 141.379C170.432 141.549 170.452 141.9 170.331 142.066C170.778 144.422 169.623 145.152 169.224 146.325C169.215 146.585 169.206 146.842 169.197 147.093C169.188 147.342 169.094 147.49 168.984 147.541C168.931 147.679 168.835 147.775 168.738 147.775C168.574 147.775 168.458 147.552 168.449 147.289C168.417 146.325 168.318 144.65 167.747 144.739C166.53 144.928 166.474 143.942 166.16 143.351C165.913 142.887 165.957 142.228 166.314 142.415Z" fill="#E6E6E6"/>
<path d="M53.9929 147.615C53.9929 147.828 54.1641 148 54.3773 148H184.616C184.829 148 185 147.828 185 147.615C185 147.401 184.829 147.23 184.616 147.23H54.3773C54.1641 147.23 53.9929 147.401 53.9929 147.615Z" fill="#CCCCCC"/>
<path d="M70.373 148H13.3984C6.45135 148 0.799446 142.334 0.799446 135.37V12.6296C0.799443 5.66567 6.45135 0 13.3984 0H70.373C77.3199 0 82.9718 5.66567 82.9718 12.6296V135.37C82.9718 142.334 77.3199 148 70.373 148Z" fill="#3F3D56"/>
<path d="M82.9719 45.148C82.6779 45.148 82.4389 45.3876 82.4389 45.6823V62.7798C82.4389 63.0744 82.678 63.3141 82.9719 63.3141C83.2659 63.3141 83.5049 63.0744 83.5049 62.7798V45.6823C83.5049 45.3876 83.2659 45.148 82.9719 45.148Z" fill="#3F3D56"/>
<path d="M81.7727 12.6297V135.368C81.7727 141.43 77.0664 146.388 71.1154 146.773H71.1128C71.0248 146.778 70.9369 146.783 70.8463 146.786C70.689 146.794 70.5318 146.797 70.3719 146.797C70.3719 146.797 69.7856 146.754 68.7143 146.674C67.6323 146.594 66.0573 146.473 64.0932 146.316C63.5042 146.27 62.8833 146.22 62.2277 146.166C60.9219 146.059 59.4881 145.942 57.9504 145.808C57.3375 145.758 56.7032 145.701 56.0556 145.645C52.7457 145.359 49.0387 145.026 45.1292 144.646C44.4682 144.585 43.802 144.521 43.1304 144.454C42.9545 144.435 42.776 144.419 42.5974 144.4C39.8098 144.125 1.99881 136.8 1.99881 135.368V12.6297C1.99881 6.31706 7.10226 1.20117 13.3996 1.20117H20.206C21.2933 1.20117 22.1674 2.0507 22.2607 3.13799C22.2687 3.21013 22.2767 3.28225 22.29 3.35438C22.4872 4.44702 23.4866 5.20839 24.5952 5.20839H59.1763C60.2849 5.20839 61.2843 4.44702 61.4815 3.35438C61.4948 3.28225 61.5028 3.21013 61.5108 3.13799C61.6041 2.0507 62.4782 1.20117 63.5655 1.20117H70.3719C76.6693 1.20117 81.7727 6.31706 81.7727 12.6297H81.7727Z" fill="white"/>
<path d="M0.532996 32.325C0.23904 32.325 0 32.5646 0 32.8592V37.1336C0 37.4283 0.239043 37.6679 0.532996 37.6679C0.826949 37.6679 1.06599 37.4283 1.06599 37.1336V32.8592C1.06599 32.5646 0.826949 32.325 0.532996 32.325Z" fill="#3F3D56"/>
<path d="M0.532996 45.148C0.23904 45.148 0 45.3876 0 45.6823V53.9639C0 54.2586 0.239043 54.4982 0.532996 54.4982C0.826949 54.4982 1.06599 54.2586 1.06599 53.9639V45.6823C1.06599 45.3876 0.826949 45.148 0.532996 45.148Z" fill="#3F3D56"/>
<path d="M0.532996 56.9025C0.23904 56.9025 0 57.1422 0 57.4368V65.7184C0 66.0131 0.239043 66.2527 0.532996 66.2527C0.826949 66.2527 1.06599 66.0131 1.06599 65.7184V57.4368C1.06599 57.1421 0.826949 56.9025 0.532996 56.9025Z" fill="#3F3D56"/>
<path d="M20.0205 3.07227H9.82738C9.77205 3.07227 9.7272 3.11723 9.7272 3.17269V4.30758C9.7272 4.36305 9.77205 4.40801 9.82738 4.40801H20.0205C20.0758 4.40801 20.1207 4.36305 20.1207 4.30758V3.17269C20.1207 3.11723 20.0758 3.07227 20.0205 3.07227Z" fill="#E6E6E6"/>
<path d="M65.2497 4.408C65.8385 4.408 66.3157 3.92957 66.3157 3.3394C66.3157 2.74924 65.8385 2.27081 65.2497 2.27081C64.661 2.27081 64.1837 2.74924 64.1837 3.3394C64.1837 3.92957 64.661 4.408 65.2497 4.408Z" fill="#E6E6E6"/>
<path d="M68.1812 4.408C68.77 4.408 69.2472 3.92957 69.2472 3.3394C69.2472 2.74924 68.77 2.27081 68.1812 2.27081C67.5925 2.27081 67.1152 2.74924 67.1152 3.3394C67.1152 3.92957 67.5925 4.408 68.1812 4.408Z" fill="#E6E6E6"/>
<path d="M71.1127 4.408C71.7014 4.408 72.1787 3.92957 72.1787 3.3394C72.1787 2.74924 71.7014 2.27081 71.1127 2.27081C70.524 2.27081 70.0467 2.74924 70.0467 3.3394C70.0467 3.92957 70.524 4.408 71.1127 4.408Z" fill="#E6E6E6"/>
<path d="M78.8905 141.007L81.3503 140.386L79.6705 129.002L76.0404 129.918L78.8905 141.007Z" fill="#FFB6B6"/>
<path d="M88.6876 143.789C88.802 144.203 88.6018 144.62 88.2404 144.721L83.3896 146.068C83.3896 146.068 82.3806 144.277 80.2055 143.99L80.8317 146.778L78.3293 147.473L77.4097 142.965C77.4097 142.965 76.0861 140.784 77.1419 139.188C78.1977 137.592 77.1183 138.073 77.1183 138.073L76.9083 135.183L80.8128 134.579L82.0286 138.869L85.0429 142.626L88.1029 143.211C88.3752 143.263 88.605 143.491 88.6876 143.789H88.6876Z" fill="#2F2E41"/>
<path d="M55.3315 139.029L57.703 139.931L62.8265 129.633L59.3269 128.301L55.3315 139.029Z" fill="#FFB6B6"/>
<path d="M61.7759 146.932C61.6333 147.337 61.2311 147.564 60.8774 147.439L56.1307 145.76C56.1307 145.76 56.3261 143.713 54.7066 142.229L53.6276 144.875L51.1789 144.009L52.9993 139.785C52.9993 139.785 53.1594 137.237 54.9365 136.534C56.7135 135.831 55.5537 135.606 55.5537 135.606L57.0318 133.116L60.5785 134.861L59.1254 139.077L59.4517 143.887L61.6266 146.123C61.8201 146.322 61.8788 146.64 61.7759 146.932L61.7759 146.932Z" fill="#2F2E41"/>
<path d="M65.6281 37.2146H53.0424C53.0609 36.6226 52.9348 36.0306 52.6764 35.5003C52.6702 36.0892 52.538 36.6781 52.295 37.2146H51.7229C50.8494 37.2146 50.139 36.5023 50.139 35.6267V27.4286C50.139 23.4143 53.2854 20.1061 57.2838 19.9149C57.4037 19.9087 57.5206 19.9056 57.6405 19.9056C60.8977 19.9056 63.8073 22.0238 64.7976 25.1624C66.2524 24.4903 67.1229 28.3104 67.7011 34.3781C68.1409 35.784 67.0952 37.2146 65.6281 37.2146Z" fill="#2F2E41"/>
<path d="M90.3252 84.0853C90.9491 85.568 90.6918 87.0926 89.7506 87.4906C88.8093 87.8886 87.5406 87.0092 86.9167 85.5265C86.6436 84.8775 86.5394 84.2205 86.5874 83.6534L84.0225 77.3376L87.0048 76.1941L89.2168 82.5416C89.6554 82.9029 90.0521 83.4363 90.3252 84.0853Z" fill="#FFB6B6"/>
<path d="M62.7492 34.4397L56.7334 35.7012L57.6561 38.476L55.8107 59.6989L58.8864 66.5329L77.648 64.9913L73.0345 55.7418C73.0345 55.7418 74.8799 48.0339 72.4194 46.4923C69.9588 44.9507 65.9605 37.2428 65.9605 37.2428L62.7492 34.4397V34.4397Z" fill="#0C5DAD"/>
<path d="M57.1415 36.9284L51.8123 39.0927L53.6577 66.2246L49.6594 89.6567L62.5772 91.8149C62.5772 91.8149 61.0394 40.0176 60.1167 39.0927C59.194 38.1677 57.1415 36.9284 57.1415 36.9284V36.9284Z" fill="#2F2E41"/>
<path d="M67.5791 40.3131C67.5791 40.3131 71.0468 38.1138 72.9203 39.7422C74.7938 41.3706 89.2181 80.7346 89.2181 80.7346L85.3274 82.4292L76.4048 63.6753L67.5791 40.3131H67.5791Z" fill="#2F2E41"/>
<path d="M77.5127 106.636L81.0313 133.746L76.1102 134.054C76.1102 134.054 73.5512 127.056 70.6324 118.811C70.0111 117.063 69.3745 115.259 68.744 113.453C68.0612 111.492 67.3814 109.531 66.7355 107.638C65.1393 102.97 63.7398 98.7212 62.9401 95.9463C62.8017 95.4592 62.6787 95.0183 62.5772 94.6298C60.4242 86.3423 59.194 64.683 59.194 64.683L77.0329 63.1414L77.2236 63.3788L81.0313 68.1485L80.8529 69.1567L76.1102 95.823L77.5127 106.636L77.5127 106.636Z" fill="#2F2E41"/>
<path d="M76.1102 95.823L77.5127 106.636L71.2045 117.769L70.6324 118.811L61.9467 134.634L57.6561 132.195C57.6561 132.195 63.2385 119.335 66.7355 107.638C67.1231 106.352 67.4829 105.079 67.8059 103.839C68.7563 100.21 67.2 93.5877 67.809 91.7625C69.8666 85.6023 76.5716 73.2789 79.6841 67.6953L80.8529 69.1567L76.1102 95.823Z" fill="#2F2E41"/>
<path d="M65.8825 37.0082L72.1118 39.401L88.4129 87.1901L78.5708 88.7317L73.9572 60.9832L65.8825 37.0082Z" fill="#2F2E41"/>
<path d="M50.3079 88.5928C50.1493 90.1941 49.1967 91.4103 48.1802 91.3091C47.1636 91.208 46.4681 89.8279 46.6267 88.2265C46.6961 87.5256 46.9176 86.8985 47.2301 86.4233L47.9869 79.6465L51.1518 80.0702L50.0698 86.7059C50.283 87.2333 50.3773 87.8919 50.3079 88.5928V88.5928Z" fill="#FFB6B6"/>
<path d="M53.9653 39.0927C53.9653 39.0927 49.9669 38.1677 48.7367 40.3259C47.5064 42.4841 46.8912 84.4153 46.8912 84.4153L51.1221 84.7236L53.3502 64.0663L53.9653 39.0927V39.0927Z" fill="#2F2E41"/>
<path d="M59.0681 33.6919C62.5992 33.6919 65.4617 30.8225 65.4617 27.2828C65.4617 23.7432 62.5992 20.8737 59.0681 20.8737C55.5371 20.8737 52.6746 23.7432 52.6746 27.2828C52.6746 30.8225 55.5371 33.6919 59.0681 33.6919Z" fill="#FFB6B6"/>
<path d="M67.0941 26.7318C67.0941 26.7318 63.9795 25.8068 62.1147 26.7318C59.5233 28.0172 52.9071 26.7318 52.9071 26.7318V23.8345C52.9071 22.143 54.1635 20.7163 55.8378 20.5065L60.6123 19.9082C64.3601 19.4386 67.6703 22.368 67.6703 26.1541V26.1541C67.6703 26.4731 67.4123 26.7318 67.0941 26.7318Z" fill="#2F2E41"/>
<path d="M60.2887 37.2145H53.0424C53.0609 36.6225 52.9348 36.0305 52.6764 35.5003C52.6702 36.0891 52.538 36.678 52.295 37.2145H51.9844V24.2652H57.5206L60.2887 37.2145Z" fill="#2F2E41"/>
</g>
<defs>
<clipPath id="clip0_212_458">
<rect width="185" height="148" fill="white"/>
</clipPath>
</defs>
</svg>
